<svg width="87" height="86" viewBox="0 0 87 86" fill="none" xmlns="http://www.w3.org/2000/svg">
<path d="M38.7839 0.799438C28.5066 3.20999 19.8479 9.10843 13.6532 17.8807C7.45858 26.6529 4.44971 37.6541 5.11971 48.732C5.78971 59.8099 10.0951 70.2682 17.2977 78.178C24.5004 86.0878 34.141 90.8996 44.5066 91.6874C54.8721 92.4751 65.1746 89.1848 73.3066 82.432C81.4385 75.6792 86.8271 65.9646 88.4212 55.3C89.9988 44.7074 87.6626 33.9207 81.8639 24.9866C76.0652 16.0526 67.2439 9.6429 57.1039 6.91787" stroke="white" stroke-width="2.88" stroke-linecap="round"/>
<path d="M55.7732 52.3534C55.7732 52.3534 42.7359 69.4987 42.7359 69.4987C42.7359 69.4987 29.6986 52.3534 29.6986 52.3534C29.6986 52.3534 55.7732 52.3534 55.7732 52.3534Z" fill="white"/>
<path d="M68.8105 33.9454C68.8105 33.9454 55.7732 51.0908 55.7732 51.0908C55.7732 51.0908 42.7359 33.9454 42.7359 33.9454C42.7359 33.9454 68.8105 33.9454 68.8105 33.9454Z" fill="white"/>
<path d="M42.7359 33.9454C42.7359 33.9454 29.6986 51.0908 29.6986 51.0908C29.6986 51.0908 16.6613 33.9454 16.6613 33.9454C16.6613 33.9454 42.7359 33.9454 42.7359 33.9454Z" fill="white"/>
<path d="M55.7733 15.5374C55.7733 15.5374 42.736 32.6828 42.736 32.6828C42.736 32.6828 29.6987 15.5374 29.6987 15.5374C29.6987 15.5374 55.7733 15.5374 55.7733 15.5374Z" fill="white"/>
</svg>